# File created by Blade
# Date/Time:  Thu Jan 22 15:33:09 2015
#---------------------------------------------------------
:version 1.10
:name HOM
:units
  mass 1.0
  length 1.000000
  angle deg
:documentation
     Acclaim Skeleton File
:root
   axis xyz
   order TX TY TZ RX RY RZ
   position 0.000000 0.000000 0.000000
   orientation 0 0 0
:bonedata
   begin
      id 1
      name RightUpLeg_dum
      direction -1.000000 0.000000 0.000000
      length 3.693983
      axis 0.0 0.0 0.0 xyz
   end
   begin
      id 2
      name LeftUpLeg_dum
      direction 1.000000 0.000000 0.000000
      length 3.693983
      axis 0.0 0.0 0.0 xyz
   end
   begin
      id 3
      name Spine_dum
      direction 0.000000 1.000000 0.000000
      length 2.392956
      axis 0.0 0.0 0.0 xyz
   end
   begin
      id 4
      name RightUpLeg
      direction 0.000000 -1.000000 0.000000
      length 15.795667
      axis 0.0 0.0 0.0 xyz
      dof rx ry rz
   end
   begin
      id 5
      name RightLeg
      direction 0.000000 -1.000000 0.000000
      length 14.766989
      axis 0.0 0.0 0.0 xyz
      dof rx ry rz
   end
   begin
      id 6
      name RightFoot
      direction 0.000000 -0.258819 0.965926
      length 4.962790
      axis 15.0 0.0 0.0 xyz
      dof rx ry rz
   end
   begin
      id 7
      name RightToeBase
      direction 0.000000 0.000000 1.000000
      length 2.952750
      axis 0.0 0.0 0.0 xyz
      dof rx ry rz
   end
   begin
      id 8
      name LeftUpLeg
      direction 0.000000 -1.000000 0.000000
      length 15.795667
      axis 0.0 0.0 0.0 xyz
      dof rx ry rz
   end
   begin
      id 9
      name LeftLeg
      direction 0.000000 -1.000000 0.000000
      length 14.766989
      axis 0.0 0.0 0.0 xyz
      dof rx ry rz
   end
   begin
      id 10
      name LeftFoot
      direction 0.000000 -0.258819 0.965926
      length 4.962790
      axis 15.0 0.0 0.0 xyz
      dof rx ry rz
   end
   begin
      id 11
      name LeftToeBase
      direction 0.000000 0.000000 1.000000
      length 2.952750
      axis 0.0 0.0 0.0 xyz
      dof rx ry rz
   end
   begin
      id 12
      name Spine
      direction 0.000000 1.000000 0.000000
      length 0.000000
      axis 0.0 0.0 0.0 xyz
      dof rx ry rz
   end
   begin
      id 13
      name Spine_dum1
      direction 0.000000 1.000000 0.000000
      length 13.207411
      axis 0.0 0.0 0.0 xyz
   end
   begin
      id 14
      name Spine_dum2
      direction 0.000000 1.000000 0.000000
      length 13.207411
      axis 0.0 0.0 0.0 xyz
   end
   begin
      id 15
      name Spine_dum3
      direction 0.000000 1.000000 0.000000
      length 19.250100
      axis 0.0 0.0 0.0 xyz
   end
   begin
      id 16
      name RightShoulder
      direction -1.000000 0.000000 0.000000
      length 8.140465
      axis 0.0 0.0 90.0 xyz
      dof rx ry rz
   end
   begin
      id 17
      name RightArm
      direction -1.000000 0.000000 0.000000
      length 10.649840
      axis 0.0 0.0 90.0 xyz
      dof rx ry rz
   end
   begin
      id 18
      name RightForeArm
      direction -1.000000 0.000000 0.000000
      length 8.304624
      axis 0.0 0.0 90.0 xyz
      dof ry rz rx
   end
   begin
      id 19
      name RightHand
      direction -1.000000 0.000000 0.000000
      length 0.000000
      axis 0.0 0.0 90.0 xyz
      dof rx ry rz
   end
   begin
      id 20
      name RightHand_dum1
      direction -1.000000 0.000000 0.000000
      length 3.937000
      axis 0.0 0.0 90.0 xyz
   end
   begin
      id 21
      name RightHand_dum2
      direction 0.000000 0.000000 0.000000
      length 0.000000
      axis 0.0 0.0 90.0 xyz
   end
   begin
      id 22
      name RightHandThumb1
      direction 0.000000 0.000000 1.000000
      length 3.937000
      axis 0.0 0.0 90.0 xyz
      dof rx rz ry
   end
   begin
      id 23
      name LeftShoulder
      direction 1.000000 0.000000 0.000000
      length 8.140465
      axis 0.0 0.0 -90.0 xyz
      dof rx ry rz
   end
   begin
      id 24
      name LeftArm
      direction 1.000000 0.000000 0.000000
      length 10.649840
      axis 0.0 0.0 -90.0 xyz
      dof rx ry rz
   end
   begin
      id 25
      name LeftForeArm
      direction 1.000000 0.000000 0.000000
      length 8.304624
      axis 0.0 0.0 -90.0 xyz
      dof ry rz rx
   end
   begin
      id 26
      name LeftHand
      direction 1.000000 0.000000 0.000000
      length 0.000000
      axis 0.0 0.0 -90.0 xyz
      dof rx ry rz
   end
   begin
      id 27
      name LeftHand_dum1
      direction 1.000000 0.000000 0.000000
      length 3.937000
      axis 0.0 0.0 -90.0 xyz
   end
   begin
      id 28
      name LeftHand_dum2
      direction 0.000000 0.000000 0.000000
      length 0.000000
      axis 0.0 0.0 -90.0 xyz
   end
   begin
      id 29
      name LeftHandThumb1
      direction 0.000000 0.000000 1.000000
      length 3.937000
      axis 0.0 0.0 -90.0 xyz
      dof rx rz ry
   end
   begin
      id 30
      name Head
      direction 0.000000 1.000000 0.000000
      length 4.527550
      axis 0.0 0.0 0.0 xyz
      dof rx ry rz
   end
:hierarchy
   begin
      root RightUpLeg_dum LeftUpLeg_dum Spine_dum
      RightUpLeg_dum RightUpLeg
      LeftUpLeg_dum LeftUpLeg
      Spine_dum Spine
      RightUpLeg RightLeg
      RightLeg RightFoot
      RightFoot RightToeBase
      LeftUpLeg LeftLeg
      LeftLeg LeftFoot
      LeftFoot LeftToeBase
      Spine Spine_dum1 Spine_dum2 Spine_dum3
      Spine_dum1 RightShoulder
      Spine_dum2 LeftShoulder
      Spine_dum3 Head
      RightShoulder RightArm
      RightArm RightForeArm
      RightForeArm RightHand
      RightHand RightHand_dum1 RightHand_dum2
      RightHand_dum2 RightHandThumb1
      LeftShoulder LeftArm
      LeftArm LeftForeArm
      LeftForeArm LeftHand
      LeftHand LeftHand_dum1 LeftHand_dum2
      LeftHand_dum2 LeftHandThumb1
   end

# File created by Blade
# Date/Time:  Thu Jan 22 15:33:01 2015
# Frame Rate: 120.000 fps
#------------------------------------------------------
:FULLY-SPECIFIED
:DEGREES
245
root -10.047367 27.369619 1.658306 43.882173 -79.699243 -2.739898
RightUpLeg -85.213067 -0.725071 -4.145076
RightLeg 66.271554 -0.000000 -0.000000
RightFoot -30.618346 -9.416774 21.067606
RightToeBase 19.049368 -0.000000 -0.000000
LeftUpLeg -87.681498 -5.277614 13.257285
LeftLeg 60.105734 -0.000000 -0.000000
LeftFoot -23.890868 6.600595 -3.282014
LeftToeBase -1.581159 -0.000000 0.000000
Spine -14.948217 0.718701 -1.089231
RightShoulder -8.118553 8.121605 -23.658574
RightArm 4.543207 -37.125219 93.115711
RightForeArm 8.547102 -0.000000 22.630083
RightHand 10.142085 0.000000 -6.819008
RightHandThumb1 -24.326973 -0.000000 -32.862282
LeftShoulder -2.139465 11.196585 19.657242
LeftArm 28.744167 49.232683 -79.709926
LeftForeArm 6.323715 -0.000000 5.178573
LeftHand -19.159081 -0.000000 -0.110326
LeftHandThumb1 -26.253704 0.000000 33.147579
Head 31.757363 45.243848 11.935958
246
root -10.015289 27.147395 1.816713 42.918636 -80.036778 -1.811566
RightUpLeg -86.471043 -0.979652 -3.868418
RightLeg 67.659836 -0.000000 -0.000000
RightFoot -31.127974 -10.192582 21.807060
RightToeBase 20.400534 -0.000000 -0.000000
LeftUpLeg -88.482141 -5.326561 12.643199
LeftLeg 61.587105 -0.000000 -0.000000
LeftFoot -24.174155 7.018798 -3.339110
LeftToeBase -1.599412 -0.000000 0.000000
Spine -14.407223 0.740694 -1.074169
RightShoulder -8.150828 8.099778 -23.532972
RightArm 4.624334 -36.971224 92.840562
RightForeArm 8.497540 -0.000000 22.640204
RightHand 10.327288 0.000000 -6.828292
RightHandThumb1 -24.326973 -0.000000 -32.862282
LeftShoulder -2.017192 11.013124 19.629765
LeftArm 29.077676 48.748166 -79.506910
LeftForeArm 7.141832 -0.000000 5.193104
LeftHand -19.092520 -0.000000 -0.413969
LeftHandThumb1 -26.253704 0.000000 33.147579
Head 31.037158 45.455347 11.355556
247
root -9.975584 26.918951 1.972596 42.262477 -80.335995 -1.202081
RightUpLeg -87.729303 -1.223363 -3.456279
RightLeg 68.960160 -0.000000 -0.000000
RightFoot -31.506361 -10.998420 22.169097
RightToeBase 21.528594 -0.000000 -0.000000
LeftUpLeg -89.294418 -5.349024 12.082155
LeftLeg 63.057619 -0.000000 -0.000000
LeftFoot -24.516757 7.134763 -3.262468
LeftToeBase -1.251132 -0.000000 0.000000
Spine -13.816908 0.749845 -0.958486
RightShoulder -8.091221 8.062575 -23.390312
RightArm 4.744573 -36.746841 92.515776
RightForeArm 8.353526 -0.000000 22.688475
RightHand 10.631342 -0.000000 -6.950614
RightHandThumb1 -24.326973 -0.000000 -32.862282
LeftShoulder -1.968152 10.778998 19.540439
LeftArm 29.506700 48.508547 -79.072278
LeftForeArm 7.524617 -0.000000 5.287143
LeftHand -19.107914 -0.000000 0.215438
LeftHandThumb1 -26.253704 0.000000 33.147579
Head 30.265316 45.715891 10.670431
248
root -9.933809 26.682936 2.129962 41.199403 -80.609755 -0.228379
RightUpLeg -89.010749 -1.528745 -3.027919
RightLeg 70.306735 -0.000000 -0.000000
RightFoot -31.751810 -11.447677 22.674796
RightToeBase 22.200603 -0.000000 -0.000000
LeftUpLeg -90.098399 -5.462141 11.518282
LeftLeg 64.548431 -0.000000 -0.000000
LeftFoot -24.883227 7.042402 -3.262187
LeftToeBase -1.410837 -0.000000 0.000000
Spine -13.138053 0.737938 -0.844137
RightShoulder -8.062929 8.081468 -23.280909
RightArm 4.854181 -36.610451 92.205836
RightForeArm 8.036417 0.000000 22.724988
RightHand 10.833107 -0.000000 -7.268206
RightHandThumb1 -24.326973 -0.000000 -32.862282
LeftShoulder -1.892928 10.661246 19.403953
LeftArm 30.187108 48.230299 -78.394902
LeftForeArm 7.911642 0.000000 5.363807
LeftHand -19.077433 -0.000000 0.485036
LeftHandThumb1 -26.253704 0.000000 33.147579
Head 29.436230 45.987572 9.867239
249
root -9.889997 26.441897 2.283544 40.479143 -80.809751 0.410918
RightUpLeg -90.276751 -1.819188 -2.518514
RightLeg 71.609124 -0.000000 -0.000000
RightFoot -31.956062 -11.680341 22.925631
RightToeBase 22.558982 -0.000000 -0.000000
LeftUpLeg -90.934115 -5.600120 11.085240
LeftLeg 66.027561 -0.000000 -0.000000
LeftFoot -25.269788 6.890853 -3.240554
LeftToeBase -1.599310 -0.000000 0.000000
Spine -12.455387 0.706725 -0.629683
RightShoulder -7.963706 8.064736 -23.119494
RightArm 5.097345 -36.652574 91.758777
RightForeArm 7.726213 -0.000000 22.681340
RightHand 10.998033 0.000000 -7.600452
RightHandThumb1 -24.326973 -0.000000 -32.862282
LeftShoulder -1.804159 10.477452 19.225278
LeftArm 30.674081 47.853437 -77.845015
LeftForeArm 8.336744 0.000000 5.486575
LeftHand -19.075102 -0.000000 0.919315
LeftHandThumb1 -26.253704 0.000000 33.147579
Head 28.663017 46.259664 9.116895
250
root -9.841821 26.197906 2.429798 39.947607 -81.044577 0.911037
RightUpLeg -91.573713 -2.034729 -2.070369
RightLeg 72.805116 -0.000000 -0.000000
RightFoot -32.191348 -11.149837 23.436571
RightToeBase 23.073938 -0.000000 -0.000000
LeftUpLeg -91.827034 -5.684611 10.686981
LeftLeg 67.511344 -0.000000 -0.000000
LeftFoot -25.662200 6.874642 -3.238517
LeftToeBase -1.283596 -0.000000 0.000000
Spine -11.809152 0.684178 -0.424361
RightShoulder -7.774859 7.996297 -22.913820
RightArm 5.411936 -36.733514 91.223964
RightForeArm 7.434408 -0.000000 22.722300
RightHand 11.315357 -0.000000 -8.074120
RightHandThumb1 -24.326973 -0.000000 -32.862282
LeftShoulder -1.683640 10.425400 19.005129
LeftArm 31.236511 47.267616 -77.226195
LeftForeArm 8.886480 -0.000000 5.610474
LeftHand -19.074314 0.000000 0.946652
LeftHandThumb1 -26.253704 0.000000 33.147579
Head 27.952673 46.538608 8.391920
251
root -9.782400 25.953346 2.566203 40.136219 -81.311371 0.773851
RightUpLeg -92.905966 -2.097330 -1.647096
RightLeg 73.802427 -0.000000 -0.000000
RightFoot -32.066047 -10.137071 23.550120
RightToeBase 23.319349 -0.000000 -0.000000
LeftUpLeg -92.804482 -5.639485 10.344799
LeftLeg 68.958813 -0.000000 -0.000000
LeftFoot -25.997674 6.986394 -3.233962
LeftToeBase -1.407358 -0.000000 0.000000
Spine -11.196882 0.736541 -0.173381
RightShoulder -7.539927 7.985457 -22.691872
RightArm 5.766448 -36.858485 90.656686
RightForeArm 7.045130 -0.000000 22.675692
RightHand 11.497895 -0.000000 -8.311936
RightHandThumb1 -24.326973 -0.000000 -32.862282
LeftShoulder -1.562685 10.359803 18.781235
LeftArm 31.798153 46.616413 -76.601218
LeftForeArm 9.298562 -0.000000 5.699635
LeftHand -19.051768 0.000000 1.370739
LeftHandThumb1 -26.253704 0.000000 33.147579
Head 27.155401 46.849127 7.584949
252
root -9.720904 25.703333 2.699444 40.303521 -81.543706 0.683645
RightUpLeg -94.247910 -2.174466 -1.260043
RightLeg 74.765671 -0.000000 -0.000000
RightFoot -31.877175 -8.538688 23.857434
RightToeBase 23.355433 -0.000000 -0.000000
LeftUpLeg -93.844491 -5.647718 10.090282
LeftLeg 70.432547 -0.000000 -0.000000
LeftFoot -26.293349 7.100438 -3.254003
LeftToeBase -1.362402 -0.000000 0.000000
Spine -10.578992 0.729948 0.090739
RightShoulder -7.312757 8.052559 -22.446852
RightArm 6.134081 -37.185322 90.037821
RightForeArm 6.746673 0.000000 22.562716
RightHand 11.663940 -0.000000 -8.297805
RightHandThumb1 -24.326973 -0.000000 -32.862282
LeftShoulder -1.473814 10.338857 18.561819
LeftArm 32.502222 46.043155 -75.827273
LeftForeArm 9.520564 -0.000000 5.774101
LeftHand -18.991498 -0.000000 1.765923
LeftHandThumb1 -26.253704 0.000000 33.147579
Head 26.312942 47.150608 6.779431
253
root -9.653870 25.449556 2.823648 40.677386 -81.751407 0.391864
RightUpLeg -95.571912 -2.200894 -0.900422
RightLeg 75.649566 -0.000000 -0.000000
RightFoot -31.484849 -6.580602 24.324778
RightToeBase 23.363974 -0.000000 -0.000000
LeftUpLeg -94.903074 -5.629165 9.859635
LeftLeg 71.866775 -0.000000 -0.000000
LeftFoot -26.567465 7.033404 -3.381523
LeftToeBase -1.405719 -0.000000 0.000000
Spine -9.929898 0.760100 0.369599
RightShoulder -7.073998 8.065809 -22.191854
RightArm 6.623447 -37.608241 89.341140
RightForeArm 6.528073 -0.000000 22.383034
RightHand 12.124718 0.000000 -8.697445
RightHandThumb1 -24.326973 -0.000000 -32.862282
LeftShoulder -1.331633 10.258834 18.325070
LeftArm 33.150813 45.487330 -75.048933
LeftForeArm 9.825536 0.000000 5.854775
LeftHand -19.056495 -0.000000 2.444868
LeftHandThumb1 -26.253704 0.000000 33.147579
Head 25.476274 47.436199 5.986690
